<svg xmlns="http://www.w3.org/2000/svg" xmlns:xlink="http://www.w3.org/1999/xlink" width="73" height="73" viewBox="0 0 73 73">
    <defs>
        <linearGradient id="prefix__c" x1="0%" x2="95.967%" y1="2.409%" y2="94.746%">
            <stop offset="0%" stop-color="#FFED57"/>
            <stop offset="100%" stop-color="#FF8D23"/>
        </linearGradient>
        <filter id="prefix__a" width="168.3%" height="170%" x="-34.1%" y="-31%" filterUnits="objectBoundingBox">
            <feOffset dy="2" in="SourceAlpha" result="shadowOffsetOuter1"/>
            <feGaussianBlur in="shadowOffsetOuter1" result="shadowBlurOuter1" stdDeviation="5.5"/>
            <feColorMatrix in="shadowBlurOuter1" values="0 0 0 0 1 0 0 0 0 0.732028327 0 0 0 0 0.376753049 0 0 0 0.3 0"/>
        </filter>
        <path id="prefix__b" d="M48.92 0c1.287 0 2.33 1.043 2.33 2.33v45.34c0 1.287-1.043 2.33-2.33 2.33H2.33C1.043 50 0 48.957 0 47.67V2.33C0 1.043 1.043 0 2.33 0h46.59zM46.01 40.476h-3.495c-.321 0-.582.26-.582.583v3.597c0 .321.26.582.582.582h3.495c.321 0 .582-.26.582-.582v-3.597c0-.322-.26-.583-.582-.583zm-37.273 0H5.24c-.321 0-.582.26-.582.583v3.597c0 .321.26.582.582.582h3.495c.321 0 .582-.26.582-.582v-3.597c0-.322-.26-.583-.582-.583zm37.273-11.905h-3.495c-.321 0-.582.261-.582.583v3.597c0 .322.26.582.582.582h3.495c.321 0 .582-.26.582-.582v-3.597c0-.322-.26-.583-.582-.583zm-37.273 0H5.24c-.321 0-.582.261-.582.583v3.597c0 .322.26.582.582.582h3.495c.321 0 .582-.26.582-.582v-3.597c0-.322-.26-.583-.582-.583zm37.273-11.904h-3.495c-.321 0-.582.26-.582.582v3.597c0 .322.26.583.582.583h3.495c.321 0 .582-.261.582-.583V17.25c0-.322-.26-.582-.582-.582zm-37.273 0H5.24c-.321 0-.582.26-.582.582v3.597c0 .322.26.583.582.583h3.495c.321 0 .582-.261.582-.583V17.25c0-.322-.26-.582-.582-.582zM46.009 4.762h-3.495c-.321 0-.582.26-.582.582v3.597c0 .322.26.583.582.583h3.495c.321 0 .582-.26.582-.583V5.344c0-.321-.26-.582-.582-.582zm-37.273 0H5.24c-.321 0-.582.26-.582.582v3.597c0 .322.26.583.582.583h3.495c.321 0 .582-.26.582-.583V5.344c0-.321-.26-.582-.582-.582z"/>
    </defs>
    <g fill="none" fill-rule="evenodd">
        <path fill="#FFF" fill-opacity="0" d="M2 0H72V70H2z"/>
        <g transform="translate(10.75 10)">
            <use fill="#000" filter="url(#prefix__a)" xlink:href="#prefix__b"/>
            <use fill="url(#prefix__c)" xlink:href="#prefix__b"/>
            <path fill="#FFF" d="M30.967 27.279l-8.8 4.95c-.854.48-1.935.177-2.416-.677-.15-.265-.228-.565-.228-.87v-9.9c0-.98.795-1.773 1.774-1.773.305 0 .605.078.87.227l8.8 4.95c.854.48 1.157 1.562.676 2.416-.159.283-.393.517-.676.677z"/>
        </g>
    </g>
</svg>
