<svg xmlns="http://www.w3.org/2000/svg" xmlns:xlink="http://www.w3.org/1999/xlink" width="78" height="75" viewBox="0 0 78 75">
    <defs>
        <filter id="prefix__a" width="192.7%" height="194.4%" x="-46.4%" y="-47.2%" filterUnits="objectBoundingBox">
            <feOffset dy="2" in="SourceAlpha" result="shadowOffsetOuter1"/>
            <feGaussianBlur in="shadowOffsetOuter1" result="shadowBlurOuter1" stdDeviation="5.5"/>
            <feColorMatrix in="shadowBlurOuter1" result="shadowMatrixOuter1" values="0 0 0 0 1 0 0 0 0 0.322008384 0 0 0 0 0.322008384 0 0 0 0.3 0"/>
            <feMerge>
                <feMergeNode in="shadowMatrixOuter1"/>
                <feMergeNode in="SourceGraphic"/>
            </feMerge>
        </filter>
        <filter id="prefix__c" width="129.7%" height="211.4%" x="-14.9%" y="-55.7%" filterUnits="objectBoundingBox">
            <feGaussianBlur in="SourceAlpha" result="shadowBlurInner1" stdDeviation="3.5"/>
            <feOffset dy="-2" in="shadowBlurInner1" result="shadowOffsetInner1"/>
            <feComposite in="shadowOffsetInner1" in2="SourceAlpha" k2="-1" k3="1" operator="arithmetic" result="shadowInnerInner1"/>
            <feColorMatrix in="shadowInnerInner1" values="0 0 0 0 1 0 0 0 0 0.375163899 0 0 0 0 0 0 0 0 0.5 0"/>
        </filter>
        <filter id="prefix__g" width="119.2%" height="126.4%" x="-9.6%" y="-6.7%" filterUnits="objectBoundingBox">
            <feOffset in="SourceAlpha" result="shadowOffsetOuter1"/>
            <feGaussianBlur in="shadowOffsetOuter1" result="shadowBlurOuter1" stdDeviation="1"/>
            <feColorMatrix in="shadowBlurOuter1" values="0 0 0 0 0.980392157 0 0 0 0 0.447678425 0 0 0 0 0.0941176471 0 0 0 1 0"/>
        </filter>
        <path id="prefix__b" d="M15.737 1.11l7.639 7.64h-5.983l-4.648-4.648c-.413-.413-.413-1.082 0-1.495l1.496-1.496c.413-.413 1.083-.413 1.496 0zm25.05-.215l.1.088 1.496 1.495c.381.382.41.982.088 1.396l-.088.1-4.776 4.776h-5.985l7.77-7.767c.38-.382.98-.411 1.395-.088z"/>
        <path id="prefix__h" d="M31.38 15.642l5.313 9.444c.515.916.19 2.077-.726 2.593-.285.16-.607.244-.934.244H24.41c-1.051 0-1.904-.852-1.904-1.904 0-.327.084-.648.245-.933l5.312-9.444c.515-.916 1.676-1.241 2.593-.726.303.171.555.422.725.726z"/>
        <linearGradient id="prefix__e" x1="4.243%" x2="104.908%" y1="24.135%" y2="78.125%">
            <stop offset="0%" stop-color="#FC71C9"/>
            <stop offset="100%" stop-color="#FE4850"/>
        </linearGradient>
        <rect id="prefix__d" width="55" height="41.25" x="0" y="0" rx="2.5"/>
    </defs>
    <g fill="none" fill-rule="evenodd">
        <path fill="#FFF" fill-opacity="0" d="M4 0H74V70H4z"/>
        <g filter="url(#prefix__a)" transform="translate(11.5 8.75)">
            <use fill="#FF0C77" fill-opacity=".617" xlink:href="#prefix__b"/>
            <use fill="#000" filter="url(#prefix__c)" xlink:href="#prefix__b"/>
            <g transform="translate(0 11.635)">
                <mask id="prefix__f" fill="#fff">
                    <use xlink:href="#prefix__d"/>
                </mask>
                <use fill="url(#prefix__e)" xlink:href="#prefix__d"/>
                <g mask="url(#prefix__f)" transform="rotate(90 29.721 20.308)">
                    <use fill="#000" filter="url(#prefix__g)" xlink:href="#prefix__h"/>
                    <use fill="#FFF" xlink:href="#prefix__h"/>
                </g>
            </g>
        </g>
    </g>
</svg>
